<?xml version="1.0" encoding="UTF-8" standalone="no"?>
<svg
   xmlns:dc="http://purl.org/dc/elements/1.1/"
   xmlns:cc="http://creativecommons.org/ns#"
   xmlns:rdf="http://www.w3.org/1999/02/22-rdf-syntax-ns#"
   xmlns:svg="http://www.w3.org/2000/svg"
   xmlns="http://www.w3.org/2000/svg"
   xmlns:sodipodi="http://sodipodi.sourceforge.net/DTD/sodipodi-0.dtd"
   xmlns:inkscape="http://www.inkscape.org/namespaces/inkscape"
   version="1.1"
   x="0px"
   y="0px"
   viewBox="0 0 1000 1000"
   enable-background="new 0 0 1000 1000"
   xml:space="preserve"
   id="svg981"
   sodipodi:docname="change.svg"
   inkscape:version="1.0.2 (e86c8708, 2021-01-15)"><defs
   id="defs985" /><sodipodi:namedview
   pagecolor="#ffffff"
   bordercolor="#666666"
   borderopacity="1"
   objecttolerance="10"
   gridtolerance="10"
   guidetolerance="10"
   inkscape:pageopacity="0"
   inkscape:pageshadow="2"
   inkscape:window-width="1124"
   inkscape:window-height="690"
   id="namedview983"
   showgrid="false"
   inkscape:zoom="0.3123898"
   inkscape:cx="620.35246"
   inkscape:cy="496.15549"
   inkscape:window-x="0"
   inkscape:window-y="25"
   inkscape:window-maximized="0"
   inkscape:current-layer="svg981" />
<metadata
   id="metadata973"> Svg Vector Icons : http://www.onlinewebfonts.com/icon <rdf:RDF><cc:Work
     rdf:about=""><dc:format>image/svg+xml</dc:format><dc:type
       rdf:resource="http://purl.org/dc/dcmitype/StillImage" /><dc:title></dc:title></cc:Work></rdf:RDF></metadata>
<g
   id="g979"
   style="fill:#ffffff"><path
     d="M133,500.9c0,71.3,17.6,142.5,55.6,207.5l95.3-78.4l62.3,348.3L10,855.3l102.9-84.6C61.2,691,31.1,596,31.1,500.9c0-219.3,138.1-414.3,341.2-479.3l45,81.2C246.7,159.8,133,322.2,133,500.9z"
     id="path975"
     style="fill:#ffffff" /><path
     d="M716.2,370L653.8,21.7L990,144.7l-102.8,84.6c51.7,79.6,81.7,174.6,81.7,269.7c0,219.3-138.1,414.3-341.2,479.3l-45-81.2C753.3,840.3,867,677.8,867,499.1c0-71.3-17.6-142.5-55.6-207.5L716.2,370z"
     id="path977"
     style="fill:#ffffff" /></g>
</svg>
