<?xml version="1.0" encoding="UTF-8" standalone="no"?>
<svg
   xmlns:dc="http://purl.org/dc/elements/1.1/"
   xmlns:cc="http://creativecommons.org/ns#"
   xmlns:rdf="http://www.w3.org/1999/02/22-rdf-syntax-ns#"
   xmlns:svg="http://www.w3.org/2000/svg"
   xmlns="http://www.w3.org/2000/svg"
   xmlns:xlink="http://www.w3.org/1999/xlink"
   xmlns:sodipodi="http://sodipodi.sourceforge.net/DTD/sodipodi-0.dtd"
   xmlns:inkscape="http://www.inkscape.org/namespaces/inkscape"
   width="210mm"
   height="297mm"
   viewBox="0 0 210 297"
   version="1.1"
   id="svg8"
   inkscape:version="1.0.2 (e86c8708, 2021-01-15)"
   sodipodi:docname="icons-set.svg">
  <defs
     id="defs2">
    <linearGradient
       inkscape:collect="always"
       id="linearGradient928-8">
      <stop
         style="stop-color:#ff2f2f;stop-opacity:1"
         offset="0"
         id="stop1101" />
      <stop
         style="stop-color:#3a0000;stop-opacity:1"
         offset="1"
         id="stop1103" />
    </linearGradient>
    <linearGradient
       inkscape:collect="always"
       id="linearGradient928-8-1">
      <stop
         style="stop-color:#fffd2f;stop-opacity:1"
         offset="0"
         id="stop955" />
      <stop
         style="stop-color:#737500;stop-opacity:1"
         offset="1"
         id="stop957" />
    </linearGradient>
    <linearGradient
       inkscape:collect="always"
       id="linearGradient928">
      <stop
         style="stop-color:#d46100;stop-opacity:1"
         offset="0"
         id="stop930" />
      <stop
         style="stop-color:#fffe9a;stop-opacity:1"
         offset="1"
         id="stop932" />
    </linearGradient>
    <linearGradient
       inkscape:collect="always"
       id="linearGradient928-8-0">
      <stop
         style="stop-color:#6ad400;stop-opacity:1"
         offset="0"
         id="stop924" />
      <stop
         style="stop-color:#002105;stop-opacity:1"
         offset="1"
         id="stop926" />
    </linearGradient>
    <linearGradient
       inkscape:collect="always"
       id="linearGradient859">
      <stop
         style="stop-color:#4d4d4d;stop-opacity:1;"
         offset="0"
         id="stop855" />
      <stop
         style="stop-color:#d6d6d6;stop-opacity:1"
         offset="1"
         id="stop857" />
    </linearGradient>
    <linearGradient
       inkscape:collect="always"
       id="linearGradient843">
      <stop
         style="stop-color:#ffffff;stop-opacity:1;"
         offset="0"
         id="stop839" />
      <stop
         style="stop-color:#ffffff;stop-opacity:0;"
         offset="1"
         id="stop841" />
    </linearGradient>
    <linearGradient
       inkscape:collect="always"
       xlink:href="#linearGradient843"
       id="linearGradient853"
       gradientUnits="userSpaceOnUse"
       x1="48.359299"
       y1="27.005594"
       x2="47.719414"
       y2="99.316261"
       gradientTransform="matrix(1.0007819,0,0,0.53571634,-0.36134571,15.512495)" />
    <linearGradient
       inkscape:collect="always"
       xlink:href="#linearGradient859"
       id="linearGradient861"
       x1="19.765955"
       y1="90.603096"
       x2="78.73024"
       y2="31.638809"
       gradientUnits="userSpaceOnUse"
       gradientTransform="matrix(1.0989218,0,0,1.0989218,-4.4880818,-5.6625661)" />
    <linearGradient
       inkscape:collect="always"
       xlink:href="#linearGradient928-8-0"
       id="linearGradient869"
       x1="48.702076"
       y1="87.065781"
       x2="49.447704"
       y2="16.485104"
       gradientUnits="userSpaceOnUse" />
    <linearGradient
       inkscape:collect="always"
       xlink:href="#linearGradient843"
       id="linearGradient893"
       gradientUnits="userSpaceOnUse"
       gradientTransform="matrix(1.0007819,0,0,0.53571634,84.305326,15.512495)"
       x1="48.359299"
       y1="27.005594"
       x2="47.719414"
       y2="99.316261" />
    <linearGradient
       inkscape:collect="always"
       xlink:href="#linearGradient928"
       id="linearGradient895"
       gradientUnits="userSpaceOnUse"
       x1="48.702076"
       y1="87.065781"
       x2="49.447704"
       y2="16.485104"
       gradientTransform="translate(84.666671)" />
    <linearGradient
       inkscape:collect="always"
       xlink:href="#linearGradient859"
       id="linearGradient897"
       gradientUnits="userSpaceOnUse"
       gradientTransform="matrix(1.0989218,0,0,1.0989218,80.178589,-5.6625661)"
       x1="19.76594"
       y1="90.603096"
       x2="78.73024"
       y2="31.638809" />
    <linearGradient
       inkscape:collect="always"
       xlink:href="#linearGradient843"
       id="linearGradient949"
       gradientUnits="userSpaceOnUse"
       gradientTransform="matrix(1.0007819,0,0,0.53571634,-0.36134571,100.17917)"
       x1="48.359299"
       y1="27.005594"
       x2="47.719414"
       y2="99.316261" />
    <linearGradient
       inkscape:collect="always"
       xlink:href="#linearGradient928-8-1"
       id="linearGradient951"
       gradientUnits="userSpaceOnUse"
       x1="48.702076"
       y1="87.065781"
       x2="49.447704"
       y2="16.485104"
       gradientTransform="translate(0,84.666671)" />
    <linearGradient
       inkscape:collect="always"
       xlink:href="#linearGradient859"
       id="linearGradient953"
       gradientUnits="userSpaceOnUse"
       gradientTransform="matrix(1.0989218,0,0,1.0989218,-4.4880818,79.004105)"
       x1="19.765955"
       y1="90.603096"
       x2="78.73024"
       y2="31.638809" />
    <linearGradient
       inkscape:collect="always"
       xlink:href="#linearGradient843"
       id="linearGradient1095"
       gradientUnits="userSpaceOnUse"
       gradientTransform="matrix(1.0007819,0,0,0.53571634,84.305329,100.17917)"
       x1="48.359299"
       y1="27.005594"
       x2="47.719414"
       y2="99.316261" />
    <linearGradient
       inkscape:collect="always"
       xlink:href="#linearGradient928-8"
       id="linearGradient1097"
       gradientUnits="userSpaceOnUse"
       gradientTransform="translate(84.666669,84.666671)"
       x1="48.702076"
       y1="87.065781"
       x2="49.447704"
       y2="16.485104" />
    <linearGradient
       inkscape:collect="always"
       xlink:href="#linearGradient859"
       id="linearGradient1099"
       gradientUnits="userSpaceOnUse"
       gradientTransform="matrix(1.0989218,0,0,1.0989218,80.178592,79.004105)"
       x1="19.765955"
       y1="90.603096"
       x2="78.73024"
       y2="31.638809" />
  </defs>
  <sodipodi:namedview
     id="base"
     pagecolor="#ffffff"
     bordercolor="#666666"
     borderopacity="1.0"
     inkscape:pageopacity="0.0"
     inkscape:pageshadow="2"
     inkscape:zoom="0.61505987"
     inkscape:cx="408.14164"
     inkscape:cy="438.28658"
     inkscape:document-units="mm"
     inkscape:current-layer="layer1"
     inkscape:document-rotation="0"
     showgrid="false"
     inkscape:window-width="1252"
     inkscape:window-height="691"
     inkscape:window-x="0"
     inkscape:window-y="25"
     inkscape:window-maximized="0" />
  <metadata
     id="metadata5">
    <rdf:RDF>
      <cc:Work
         rdf:about="">
        <dc:format>image/svg+xml</dc:format>
        <dc:type
           rdf:resource="http://purl.org/dc/dcmitype/StillImage" />
        <dc:title></dc:title>
      </cc:Work>
    </rdf:RDF>
  </metadata>
  <g
     inkscape:label="Layer 1"
     inkscape:groupmode="layer"
     id="layer1">
    <rect
       style="opacity:1;fill:url(#linearGradient861);fill-opacity:1;stroke:#666666;stroke-width:0.549461;stroke-linecap:round;stroke-linejoin:round"
       id="rect833"
       width="64.797142"
       height="64.797142"
       x="17.233156"
       y="29.10601"
       ry="7.9077106" />
    <rect
       style="opacity:1;fill:url(#linearGradient869);fill-opacity:1;stroke:#666666;stroke-width:0.5;stroke-linecap:round;stroke-linejoin:round"
       id="rect835"
       width="53.13905"
       height="53.13905"
       x="22.678572"
       y="34.551426"
       ry="5.8252373" />
    <g
       aria-label="180"
       id="text849"
       style="font-style:normal;font-variant:normal;font-weight:normal;font-stretch:normal;font-size:22.4233px;line-height:1.45;font-family:'Polly Rounded';-inkscape-font-specification:'Polly Rounded';fill:#ffffff;stroke-width:0.560583" />
    <path
       id="rect851"
       style="opacity:1;fill:url(#linearGradient853);fill-opacity:1;stroke:none;stroke-width:0.659875;stroke-linecap:round;stroke-linejoin:round"
       d="m 27.932273,34.830919 42.789903,-1e-6 c 2.41019,0 4.96401,2.90466 4.813364,5.23967 l 0.03494,9.029548 C 75.196686,64.935432 22.219796,65.547832 22.909471,49.030262 l 0.06987,-9.247162 c 0.01661,-2.19769 2.416866,-4.952181 4.952929,-4.952181 z"
       sodipodi:nodetypes="sscccss" />
    <rect
       style="opacity:1;fill:url(#linearGradient897);fill-opacity:1;stroke:#666666;stroke-width:0.549461;stroke-linecap:round;stroke-linejoin:round"
       id="rect879"
       width="64.797142"
       height="64.797142"
       x="101.89981"
       y="29.10601"
       ry="7.9077106" />
    <rect
       style="opacity:1;fill:url(#linearGradient895);fill-opacity:1.0;stroke:#666666;stroke-width:0.5;stroke-linecap:round;stroke-linejoin:round"
       id="rect881"
       width="53.13905"
       height="53.13905"
       x="107.34522"
       y="34.551426"
       ry="5.8252373" />
    <path
       id="path891"
       style="opacity:1;fill:url(#linearGradient893);fill-opacity:1;stroke:none;stroke-width:0.659875;stroke-linecap:round;stroke-linejoin:round"
       d="m 112.59895,34.830919 42.78993,-1e-6 c 2.41019,0 4.96401,2.90466 4.81336,5.23967 l 0.0349,9.029548 c -0.37379,15.835296 -53.35071,16.447696 -52.66103,-0.06987 l 0.0699,-9.247162 c 0.0166,-2.19769 2.41686,-4.952181 4.95293,-4.952181 z"
       sodipodi:nodetypes="sscccss" />
    <rect
       style="opacity:1;fill:#ffffff;fill-opacity:1;stroke:#666666;stroke-width:0.318367;stroke-linecap:round;stroke-linejoin:round"
       id="rect899"
       width="3.5346656"
       height="19.637032"
       x="125.51624"
       y="50.164906" />
    <path
       style="fill:none;stroke:#ffffff;stroke-width:0.5;stroke-linecap:butt;stroke-linejoin:miter;stroke-opacity:1"
       d="M 107.32374,71.549156 H 160.0604"
       id="path901" />
    <rect
       style="opacity:1;fill:#ffffff;fill-opacity:1;stroke:#666666;stroke-width:0.373497;stroke-linecap:round;stroke-linejoin:round"
       id="rect903"
       width="3.5346656"
       height="27.026609"
       x="132.25504"
       y="42.77533" />
    <rect
       style="opacity:1;fill:#ffffff;fill-opacity:1;stroke:#666666;stroke-width:0.253751;stroke-linecap:round;stroke-linejoin:round"
       id="rect905"
       width="3.5346656"
       height="12.474873"
       x="138.99382"
       y="57.327065" />
    <rect
       style="opacity:1;fill:#ffffff;fill-opacity:1;stroke:#666666;stroke-width:0.318367;stroke-linecap:round;stroke-linejoin:round"
       id="rect907"
       width="3.5346656"
       height="19.637032"
       x="146.68294"
       y="50.164906" />
    <rect
       style="opacity:1;fill:#ffffff;fill-opacity:1;stroke:#666666;stroke-width:0.253751;stroke-linecap:round;stroke-linejoin:round"
       id="rect909"
       width="3.5346656"
       height="12.474873"
       x="117.82714"
       y="57.327065" />
    <path
       id="path915"
       style="fill:#ffffff;stroke:none;stroke-width:0.0671733px;stroke-linecap:butt;stroke-linejoin:miter;stroke-opacity:1"
       d="m 49.675375,45.531639 0.601649,4.412083 4.662773,-5.164152 z m -1.672262,0 -0.60165,4.412083 -4.662773,-5.164152 z m 2.8356,10.636327 -0.13172,-0.824989 m -0.07742,-0.484813 -1.822784,-11.416413 -1.544412,11.486583 z m 0.07742,0.484813 -3.502585,0.01586 -0.117061,0.870614 3.75137,-0.06215 m 0.07443,0.466202 0.613173,3.8404 c 0.28452,1.781989 -0.79166,2.814846 -2.022307,3.038663 -0.125667,0.02381 -0.284817,7.16011 -0.412407,7.166034 -0.140126,0.0053 -0.248785,-7.120091 -0.388003,-7.134188 -1.279028,-0.129339 -2.447699,-1.131065 -2.186935,-3.070509 l 0.507274,-3.772849 z" />
    <path
       style="fill:none;stroke:#ffffff;stroke-width:1;stroke-linecap:butt;stroke-linejoin:miter;stroke-opacity:1"
       d="m 36.756761,68.721342 c 8.946932,-1.641427 16.893422,-1.281977 24.37865,0 l -2.199578,6.598727 c -7.483777,-1.60251 -13.714011,-1.32471 -19.246302,0 z"
       id="path918"
       sodipodi:nodetypes="ccccc" />
    <path
       id="path920"
       style="fill:#ffffff;stroke:none;stroke-width:0.0671733px;stroke-linecap:butt;stroke-linejoin:miter;stroke-opacity:1"
       d="m 62.89911,47.094899 -0.433783,4.431736 5.729554,-3.94742 z m -1.627036,-0.386281 -1.60454,4.153782 -3.343786,-6.101558 z m 0.301993,11.003675 0.06241,-0.833103 m 0.03666,-0.489585 0.863627,-11.528711 -4.155967,10.819183 z m -0.03666,0.489585 -3.411522,-0.793643 -0.315002,0.820028 3.664272,0.806072 m -0.03527,0.470787 -0.290517,3.878176 c -0.134802,1.799518 -1.42046,2.555852 -2.669525,2.489345 -0.127768,-0.0059 -1.931051,6.900676 -2.056558,6.876968 -0.137561,-0.02721 1.402636,-6.984999 1.270439,-7.030873 -1.214565,-0.421288 -2.120237,-1.665877 -1.418527,-3.492635 l 1.365057,-3.553637 z" />
    <path
       id="path922"
       style="fill:#ffffff;stroke:none;stroke-width:0.0671733px;stroke-linecap:butt;stroke-linejoin:miter;stroke-opacity:1"
       d="m 34.966263,47.094899 0.433783,4.431736 -5.729554,-3.94742 z m 1.627036,-0.386281 1.60454,4.153782 3.343786,-6.101558 z m -0.301993,11.003675 -0.06241,-0.833103 m -0.03666,-0.489585 -0.863627,-11.528711 4.155967,10.819183 z m 0.03666,0.489585 3.411522,-0.793643 0.315002,0.820028 -3.664272,0.806072 m 0.03527,0.470787 0.290517,3.878176 c 0.134802,1.799518 1.42046,2.555852 2.669525,2.489345 0.127768,-0.0059 1.931051,6.900676 2.056558,6.876968 0.137561,-0.02721 -1.402636,-6.984999 -1.270439,-7.030873 1.214565,-0.421288 2.120237,-1.665877 1.418527,-3.492635 l -1.365057,-3.553637 z" />
    <rect
       style="opacity:1;fill:url(#linearGradient953);fill-opacity:1;stroke:#666666;stroke-width:0.549461;stroke-linecap:round;stroke-linejoin:round"
       id="rect935"
       width="64.797142"
       height="64.797142"
       x="17.233156"
       y="113.77267"
       ry="7.9077106" />
    <rect
       style="opacity:1;fill:url(#linearGradient951);fill-opacity:1.0;stroke:#666666;stroke-width:0.5;stroke-linecap:round;stroke-linejoin:round"
       id="rect937"
       width="53.13905"
       height="53.13905"
       x="22.678572"
       y="119.21807"
       ry="5.8252373" />
    <path
       id="path939"
       style="opacity:1;fill:url(#linearGradient949);fill-opacity:1;stroke:none;stroke-width:0.659875;stroke-linecap:round;stroke-linejoin:round"
       d="m 27.932273,119.4976 h 42.789903 c 2.41019,0 4.96401,2.90466 4.813364,5.23967 l 0.03494,9.02956 c -0.373794,15.8353 -53.350684,16.4477 -52.661009,-0.0699 l 0.06987,-9.24717 c 0.01661,-2.19769 2.416866,-4.95218 4.952929,-4.95218 z"
       sodipodi:nodetypes="sscccss" />
    <text
       xml:space="preserve"
       style="font-size:52.0255px;line-height:1.45;font-family:sans-serif;stroke-width:1.30064"
       x="32.089066"
       y="162.74626"
       id="text962"><tspan
         sodipodi:role="line"
         id="tspan960"
         x="32.089066"
         y="162.74626"
         style="font-style:normal;font-variant:normal;font-weight:normal;font-stretch:normal;font-family:'Polly Rounded';-inkscape-font-specification:'Polly Rounded';fill:#ffffff;stroke-width:1.30064">9</tspan></text>
    <rect
       style="opacity:1;fill:url(#linearGradient1099);fill-opacity:1;stroke:#666666;stroke-width:0.549461;stroke-linecap:round;stroke-linejoin:round"
       id="rect1085"
       width="64.797142"
       height="64.797142"
       x="101.8998"
       y="113.77267"
       ry="7.9077106" />
    <rect
       style="opacity:1;fill:url(#linearGradient1097);fill-opacity:1.0;stroke:#666666;stroke-width:0.5;stroke-linecap:round;stroke-linejoin:round"
       id="rect1087"
       width="53.13905"
       height="53.13905"
       x="107.34521"
       y="119.21807"
       ry="5.8252373" />
    <path
       style="fill:#ffffff;stroke-width:0.126545"
       d="m 141.99806,167.51841 c -1.25405,-0.26278 -2.55542,-0.74973 -3.59829,-1.3464 l -0.93614,-0.53563 -0.71413,-1.59423 c -1.67001,-3.72807 -1.83845,-4.04432 -2.19247,-4.11624 -0.1826,-0.0371 -1.2968,-0.12866 -2.47601,-0.2035 -3.72816,-0.23659 -5.14042,-0.59281 -7.55181,-1.90483 -3.1633,-1.72115 -5.75315,-3.83046 -7.15285,-5.82565 -0.47662,-0.67942 -0.96742,-1.18229 -1.65819,-1.69895 -1.28147,-0.9585 -3.42533,-3.14232 -3.71864,-3.78794 -0.42264,-0.93037 -0.3131,-1.52294 0.50793,-2.74771 0.20072,-0.2994 0.53481,-1.05688 0.74246,-1.68328 0.49062,-1.47997 1.19588,-3.17428 1.70008,-4.08422 1.05384,-1.90183 1.10266,-1.95133 7.69016,-7.80053 1.01246,-0.899 2.80894,-2.61034 3.99214,-3.803 2.21395,-2.2316 2.6096,-2.54289 3.67857,-2.89414 1.15653,-0.38003 3.5872,-0.84284 4.44985,-0.84728 0.47098,-0.002 1.31189,-0.0867 1.8687,-0.18735 2.55726,-0.46203 4.12668,0.0509 4.48622,1.46606 0.0784,0.30834 0.48919,1.25378 0.91303,2.10099 0.65981,1.31891 0.77934,1.66459 0.83138,2.40437 0.0606,0.86071 0.0587,0.86652 -0.47299,1.53229 -0.2936,0.36756 -0.71261,0.76197 -0.93117,0.87644 -0.71996,0.3771 -2.18082,0.35098 -4.69993,-0.0841 -2.01333,-0.34765 -2.35129,-0.4416 -2.91055,-0.8091 -0.87396,-0.57428 -0.9694,-0.59563 -1.53057,-0.34233 -0.9377,0.42325 -1.55641,1.27857 -2.876,3.97589 l -1.22971,2.51359 -0.1156,1.41852 c -0.12239,1.50153 -0.45011,2.98145 -0.96054,4.33755 l -0.30974,0.82287 0.32141,-0.0807 c 0.17678,-0.0444 0.74599,-0.1345 1.26491,-0.20029 2.52202,-0.31976 4.87622,0.6177 6.19513,2.46695 0.39688,0.55647 0.56084,0.69467 0.75928,0.64001 1.61943,-0.44613 2.91867,-0.62129 4.61892,-0.62271 2.18091,-0.002 2.89199,0.15622 4.74963,1.05549 0.90137,0.43635 1.52535,0.84893 2.15128,1.42237 l 0.88166,0.80773 0.50618,-0.18321 c 0.28665,-0.10374 1.00012,-0.18851 1.64509,-0.19546 1.07655,-0.0118 1.19689,0.0152 2.19762,0.48914 1.24142,0.58793 1.63723,1.03088 2.49205,2.78878 0.80144,1.64813 1.11371,3.04967 1.11371,4.99855 0,1.89197 -0.29796,3.28084 -1.0466,4.87838 -0.63831,1.36214 -1.12303,2.06235 -2.21766,3.20356 -1.49845,1.56222 -3.39659,2.67573 -5.51295,3.23406 -1.11765,0.29484 -3.84778,0.37494 -4.94482,0.14506 z m 3.93973,-0.84976 c 0.48321,-0.0798 0.87812,-0.17944 0.87758,-0.22144 -4.7e-4,-0.042 -0.21407,-0.19844 -0.47454,-0.34765 -1.16194,-0.66557 -2.24288,-1.95592 -4.0661,-4.85382 -1.17223,-1.8632 -1.2901,-2.00729 -1.87259,-2.28928 -0.43338,-0.20979 -0.69567,-0.25551 -1.12696,-0.19639 -1.03675,0.14211 -1.94977,0.77232 -1.94977,1.34585 0,0.89641 0.99024,3.1622 2.16677,4.95785 0.76675,1.17023 0.82595,1.20103 3.21143,1.67078 0.55298,0.10884 2.40418,0.0711 3.23418,-0.0659 z m 3.03579,-1.82269 c 0.34141,-0.36343 0.94232,-0.50279 1.40667,-0.32625 0.30858,0.11737 0.4023,0.0602 1.21596,-0.74061 3.43082,-3.37683 4.25644,-8.29328 2.11044,-12.56731 -0.65288,-1.30026 -1.00569,-1.69156 -1.91751,-2.12673 -0.44913,-0.21436 -0.82945,-0.37046 -0.84519,-0.34691 -0.0158,0.0236 -0.14961,0.71741 -0.29753,1.54191 -0.14792,0.82449 -0.30003,1.53018 -0.33805,1.56819 -0.10077,0.10078 -1.41123,-1.0311 -2.28985,-1.97796 -1.98099,-2.13489 -2.53076,-2.61313 -3.61531,-3.145 -0.58678,-0.28776 -1.40855,-0.61477 -1.82615,-0.72671 -1.15928,-0.31074 -3.0817,-0.37357 -4.55459,-0.14887 -1.4207,0.21675 -1.74919,0.44189 -1.91215,1.3105 -0.0791,0.42185 0.10647,1.49399 0.39011,2.2535 0.16203,0.43381 -0.49547,-0.41363 -1.35199,-1.74253 -0.43827,-0.67999 -1.08158,-1.67179 -1.42957,-2.20401 -1.06058,-1.62193 -2.27938,-2.23519 -4.42912,-2.22858 -1.39053,0.004 -2.66427,0.31561 -4.8644,1.18894 -1.50308,0.59665 -3.51913,1.20046 -3.63183,1.08776 -0.0283,-0.0283 0.27715,-0.17309 0.67901,-0.32152 0.7602,-0.28078 2.11886,-1.01445 2.03462,-1.09868 -0.0266,-0.0266 -0.30241,0.0431 -0.61289,0.15485 -0.4024,0.14486 -1.1278,0.21452 -2.52597,0.24254 l -1.96146,0.0394 1.26546,-0.23234 c 3.10011,-0.56913 4.72706,-1.51429 5.61218,-3.26027 0.3364,-0.66361 0.90493,-2.6062 0.90493,-3.09205 0,-0.47611 -0.21554,-0.4742 -1.43144,0.0127 -0.92571,0.37067 -2.60035,0.82063 -2.69646,0.72453 -0.0268,-0.0268 0.42126,-0.28178 0.99561,-0.56671 1.79219,-0.88904 2.74894,-1.65031 3.7273,-2.96575 1.7124,-2.30233 3.15706,-4.83098 3.01527,-5.27772 -0.15844,-0.49922 -0.4765,-0.42991 -2.26191,0.4929 -0.9636,0.49804 -1.77617,0.88135 -1.8057,0.85181 -0.0295,-0.0295 0.9109,-0.6866 2.08988,-1.46012 1.17899,-0.77352 2.18843,-1.47894 2.24323,-1.56757 0.0549,-0.0887 0.11204,-0.72226 0.12727,-1.40799 0.0152,-0.68576 0.0603,-1.2795 0.10031,-1.31946 0.04,-0.0399 0.0727,0.12583 0.0727,0.3684 0,0.24255 0.0877,0.73626 0.19482,1.09709 0.25995,0.87534 0.59673,1.0897 1.69614,1.07963 1.08323,-0.009 2.04295,-0.33232 2.62593,-0.88214 0.46918,-0.44249 0.66486,-0.4128 0.66955,0.10161 0.005,0.50665 -0.24072,0.8624 -0.59603,0.86437 -1.02775,0.006 -0.92083,1.05345 0.12457,1.22084 0.53448,0.0856 1.45606,-0.20766 1.78095,-0.56666 0.23231,-0.25672 0.5844,-1.52039 0.60449,-2.16963 0.0136,-0.44048 0.0159,-0.43846 0.13337,0.1215 0.13763,0.65578 0.0543,1.84836 -0.16251,2.32409 -0.17514,0.38438 0.0173,0.71301 0.41752,0.71301 0.40724,0 0.7312,-0.95795 0.91007,-2.6911 l 0.15979,-1.54818 0.0982,0.86894 c 0.0539,0.47793 0.0788,1.47447 0.0554,2.21456 l -0.0429,1.3456 h 0.42882 c 0.66171,0 0.93187,-0.45128 0.92163,-1.53956 -0.004,-0.4777 -0.0638,-1.12396 -0.13185,-1.43613 -0.068,-0.31218 -0.15607,-0.96621 -0.19567,-1.45341 l -0.072,-0.88583 0.19073,0.75928 c 0.10493,0.41761 0.3133,1.12942 0.4631,1.58182 0.14978,0.4524 0.30534,1.15826 0.34571,1.56858 0.0876,0.89036 0.34654,1.15518 0.76197,0.77923 0.48783,-0.44149 0.35691,-1.12924 -0.56205,-2.95222 -0.45241,-0.89745 -0.82255,-1.72936 -0.82255,-1.84868 0,-0.37421 -0.34699,-0.90814 -0.69246,-1.06554 -0.39479,-0.17989 -0.61525,-0.19538 -0.51695,-0.0363 0.039,0.0632 0.0175,0.24824 -0.0478,0.41128 -0.0653,0.16302 -0.12238,0.22263 -0.12679,0.13248 -0.013,-0.26596 -0.60692,-0.78517 -0.89814,-0.78517 -0.22684,0 -0.25738,0.0544 -0.19523,0.34801 0.0405,0.1914 0.0239,0.51884 -0.0369,0.72764 l -0.1105,0.37963 -0.0939,-0.34999 c -0.0517,-0.19251 -0.23894,-0.46409 -0.41619,-0.60352 -0.29624,-0.23302 -0.44599,-0.2472 -1.85234,-0.17545 -1.77439,0.0905 -4.48323,0.65022 -5.46268,1.12867 -0.35335,0.17261 -0.89432,0.57753 -1.20218,0.89983 -0.30786,0.3223 -2.73455,2.78582 -5.39265,5.47451 -2.65811,2.68868 -5.15434,5.28355 -5.54719,5.76637 -0.75872,0.93247 -1.74563,2.78558 -2.52386,4.73911 -0.41961,1.05331 -0.46768,1.286 -0.42426,2.05439 0.0455,0.80552 0.0832,0.9016 0.53517,1.36445 0.26741,0.27385 0.83504,0.65559 1.26143,0.84829 0.70821,0.32007 0.74788,0.35816 0.45887,0.44054 -0.174,0.0496 -0.68936,0.0958 -1.14524,0.10279 -0.89864,0.0136 -1.13258,0.14384 -1.13258,0.63017 0,0.61374 1.79559,1.93242 3.10037,2.2769 0.2784,0.0735 1.47425,0.28004 2.65746,0.45898 1.1832,0.17893 2.35058,0.37169 2.59419,0.42837 l 0.4429,0.10303 -0.4429,0.0772 c -0.24361,0.0425 -0.83642,0.13965 -1.31737,0.21608 -0.90953,0.14457 -1.43765,0.3541 -1.70526,0.67655 -0.12569,0.15144 -0.12015,0.26014 0.0277,0.54616 0.22642,0.43774 1.4581,1.62036 2.25329,2.16357 2.18899,1.49529 5.52281,2.41313 8.25176,2.2718 1.56432,-0.081 2.39836,-0.3266 3.07447,-0.90534 l 0.51326,-0.43933 0.26886,0.36366 c 0.57698,0.78039 2.58671,1.43289 3.74446,1.21569 0.40492,-0.076 0.45386,-0.12747 0.45386,-0.47759 0,-0.21585 -0.17787,-0.93933 -0.39525,-1.60772 -0.24267,-0.74617 -0.41695,-1.58165 -0.45149,-2.16438 l -0.0562,-0.94909 0.44072,0.98632 c 0.5649,1.26418 0.82513,1.59589 2.31892,2.95558 2.73024,2.48517 2.93678,2.77553 3.58962,5.04654 0.21951,0.76358 0.59761,1.76814 0.84022,2.23239 0.57065,1.0919 1.65873,2.2869 2.69673,2.96167 l 0.82405,0.53572 0.0806,-0.37573 c 0.0443,-0.20664 0.21004,-0.51348 0.36823,-0.68187 z m -16.02501,-11.71582 c -0.82611,-0.72222 -0.86863,-0.74114 -1.96513,-0.87433 -2.35007,-0.28549 -4.5166,-1.32017 -5.89465,-2.8152 -0.59263,-0.64293 -1.12338,-1.51517 -1.24836,-2.05164 -0.086,-0.36923 -0.0781,-0.36565 0.2884,0.13043 1.16234,1.57322 3.52325,2.9245 5.97419,3.41936 1.28551,0.25954 3.82705,0.19632 4.99422,-0.12425 0.4101,-0.11263 0.76554,-0.18489 0.78986,-0.16058 0.0243,0.0243 -0.3824,0.31883 -0.90381,0.65447 -1.15107,0.74094 -1.15264,0.74278 -1.36719,1.58113 l -0.17237,0.67351 z"
       id="path1083" />
    <path
       id="path1089"
       style="opacity:1;fill:url(#linearGradient1095);fill-opacity:1;stroke:none;stroke-width:0.659875;stroke-linecap:round;stroke-linejoin:round"
       d="m 112.59895,119.4976 h 42.78993 c 2.41019,0 4.96401,2.90466 4.81336,5.23967 l 0.0349,9.02956 c -0.37379,15.8353 -53.35071,16.4477 -52.66103,-0.0699 l 0.0699,-9.24717 c 0.0166,-2.19769 2.41686,-4.95218 4.95293,-4.95218 z"
       sodipodi:nodetypes="sscccss" />
  </g>
</svg>
